HIERARCHY
ROOT Hips
{
	OFFSET -3.958830 18.904000 13.208200
	CHANNELS 6 Xposition Yposition Zposition Zrotation Yrotation Xrotation 
	JOINT LHipJoint
	{
		OFFSET 0.000000 0.000000 0.000000
		CHANNELS 3 Zrotation Yrotation Xrotation
		JOINT LeftUpLeg
		{
			OFFSET 1.800000 -1.400000 0.085000
			CHANNELS 3 Zrotation Yrotation Xrotation
			JOINT LeftLeg
			{
				OFFSET 2.215000 -6.000000 0.000000
				CHANNELS 3 Zrotation Yrotation Xrotation
				JOINT LeftFoot
				{
					OFFSET 2.500000 -6.900000 0.000000
					CHANNELS 3 Zrotation Yrotation Xrotation
					JOINT LeftToeBase
					{
						OFFSET 0.200000 -0.500000 1.950000
						CHANNELS 3 Zrotation Yrotation Xrotation
						End Site
						{
							OFFSET 0.000000 0.000000 0.000000
						}
					}
				}
			}
		}
	}
	JOINT RHipJoint
	{
		OFFSET 0.000000 0.000000 0.000000
		CHANNELS 3 Zrotation Yrotation Xrotation
		JOINT RightUpLeg
		{
			OFFSET -1.800000 -1.400000 0.085000
			CHANNELS 3 Zrotation Yrotation Xrotation
			JOINT RightLeg
			{
				OFFSET -2.215000 -6.000000 0.000000
				CHANNELS 3 Zrotation Yrotation Xrotation
				JOINT RightFoot
				{
					OFFSET -2.500000 -6.900000 0.000000
					CHANNELS 3 Zrotation Yrotation Xrotation
					JOINT RightToeBase
					{
						OFFSET -0.200000 -0.500000 1.950000
						CHANNELS 3 Zrotation Yrotation Xrotation
						End Site
						{
							OFFSET 0.000000 0.000000 0.000000
						}
					}
				}
			}
		}
	}
	JOINT LowerBack
	{
		OFFSET 0.000000 0.000000 0.000000
		CHANNELS 3 Zrotation Yrotation Xrotation
		JOINT Spine
		{
			OFFSET -0.087000 1.940000 -0.288900
			CHANNELS 3 Zrotation Yrotation Xrotation
			JOINT Spine1
			{
				OFFSET 0.000000 1.950000 0.060000
				CHANNELS 3 Zrotation Yrotation Xrotation
				JOINT Neck
				{
					OFFSET 0.000000 0.000000 0.000000
					CHANNELS 3 Zrotation Yrotation Xrotation
					JOINT Neck1
					{
						OFFSET 0.000000 1.600000 0.340000
						CHANNELS 3 Zrotation Yrotation Xrotation
						JOINT Head
						{
							OFFSET 0.000000 1.667000 -0.240000
							CHANNELS 3 Zrotation Yrotation Xrotation
							End Site
							{
								OFFSET 0.000000 0.000000 0.000000
							}
						}
					}
				}
				JOINT LeftShoulder
				{
					OFFSET 0.000000 0.000000 0.000000
					CHANNELS 3 Zrotation Yrotation Xrotation
					JOINT LeftArm
					{
						OFFSET 2.700000 1.550000 -0.730000
						CHANNELS 3 Zrotation Yrotation Xrotation
						JOINT LeftForeArm
						{
							OFFSET 5.450000 0.000000 0.000000
							CHANNELS 3 Zrotation Yrotation Xrotation
							JOINT LeftHand
							{
								OFFSET 3.450000 0.000000 0.000000
								CHANNELS 3 Zrotation Yrotation Xrotation
								JOINT LeftHandIndex1
								{
									OFFSET 0.750000 0.000000 0.000000
									CHANNELS 3 Zrotation Yrotation Xrotation
									End Site
									{
										OFFSET 0.000000 0.000000 0.000000
									}
								}
							}
						}
					}
				}
				JOINT RightShoulder
				{
					OFFSET 0.000000 0.000000 0.000000
					CHANNELS 3 Zrotation Yrotation Xrotation
					JOINT RightArm
					{
						OFFSET -2.700000 1.550000 -0.730000
						CHANNELS 3 Zrotation Yrotation Xrotation
						JOINT RightForeArm
						{
							OFFSET -5.450000 0.000000 0.000000
							CHANNELS 3 Zrotation Yrotation Xrotation
							JOINT RightHand
							{
								OFFSET -3.450000 0.000000 0.000000
								CHANNELS 3 Zrotation Yrotation Xrotation
								JOINT RightHandIndex1
								{
									OFFSET -0.750000 0.000000 0.000000
									CHANNELS 3 Zrotation Yrotation Xrotation
									End Site
									{
										OFFSET 0.000000 0.000000 0.000000
									}
								}
							}
						}
					}
				}
			}
		}
	}
}
MOTION
Frames: 6
Frame Time: 0.016667
-0.200580 16.874030 -0.794210 -2.579333 -2.944928 5.333322 -14.801339 12.920142 2.729677 5.536250 -2.328066 -17.093057 -8.168078 7.460670 20.374474 0.000803 4.620641 3.090726 0.073590 -0.333940 0.356960 18.613002 -11.390490 2.691095 -3.334323 1.020784 -13.520274 8.272097 -5.805338 15.624240 0.026474 -3.736668 3.153134 -0.201070 0.302370 0.213440 -4.557978 -0.130747 -6.743932 13.891221 0.816892 2.499689 -6.140509 0.800116 3.892190 2.190229 -2.389820 -6.651439 -5.562008 0.613578 33.502887 -7.073210 3.594690 8.237940 -15.379779 1.737179 1.356651 -57.133901 -3.957831 -3.548293 -26.096825 -20.393972 2.805008 -3.955785 3.194132 0.039880 0.300120 -0.254500 0.033220 10.426559 0.242284 2.805367 68.670571 2.934311 -7.238826 14.909246 17.891762 -0.097130 2.618147 -1.561203 -0.117780 -0.117520 -0.081820 -0.119390 
-0.201070 16.873650 -0.795010 -2.574550 -3.034499 5.299563 -14.802573 12.934089 2.734859 5.550130 -2.327628 -17.124027 -8.185979 7.490717 20.468286 0.005922 4.631005 3.086870 0.077100 -0.327470 0.360820 18.611148 -11.380558 2.688183 -3.307229 1.017012 -13.491295 8.209921 -5.789230 15.646218 0.023123 -3.725188 3.158559 -0.199710 0.298230 0.209260 -4.552398 -0.175885 -6.746691 13.905236 0.782968 2.557495 -6.124795 0.785158 3.915166 2.123996 -2.654017 -6.693271 -6.102468 0.834509 33.700638 -7.179100 3.718770 8.153920 -15.184183 1.829290 1.361734 -57.208795 -3.995740 -3.511193 -26.344427 -20.470020 2.864773 -3.947520 3.190516 0.043850 0.294750 -0.248360 0.035230 10.352530 0.346479 2.838491 68.646098 2.977898 -7.237927 15.076633 17.903009 -0.070899 2.620637 -1.558011 -0.117380 -0.112460 -0.086320 -0.118730 
-0.201170 16.873670 -0.795960 -2.615903 -3.166159 5.224730 -14.803969 12.959564 2.742602 5.648506 -2.325847 -17.178145 -8.235047 7.562152 20.673457 0.015907 4.664773 3.074669 0.082980 -0.322440 0.374810 18.608887 -11.360094 2.685431 -3.222707 1.005972 -13.387018 8.113161 -5.759656 15.628422 0.015250 -3.704540 3.165912 -0.201670 0.288410 0.206500 -4.545428 -0.260206 -6.753536 13.996179 0.713313 2.660783 -6.084025 0.748943 3.961066 2.015051 -3.152919 -6.785542 -7.148612 1.174679 34.102520 -7.582910 3.981730 8.060420 -14.904614 1.972450 1.388646 -57.284061 -3.989086 -3.494809 -26.881125 -20.751040 3.008156 -3.932864 3.185891 0.053730 0.285220 -0.235480 0.036390 10.267601 0.572979 2.916777 68.531850 3.021528 -7.266647 15.368055 17.959824 -0.020414 2.626326 -1.552544 -0.116320 -0.107330 -0.094400 -0.120670 
-0.202510 16.873890 -0.797570 -2.616439 -3.354771 5.109730 -14.807549 12.998296 2.752885 5.706386 -2.315477 -17.210516 -8.258654 7.630842 20.893403 0.028934 4.690407 3.061575 0.089930 -0.310540 0.382370 18.603049 -11.334279 2.679360 -3.185249 0.999358 -13.301724 8.029952 -5.746915 15.714480 0.005454 -3.687749 3.169952 -0.201690 0.274780 0.201250 -4.529398 -0.378995 -6.760836 14.008049 0.626630 2.814829 -6.049909 0.708407 3.985508 1.857036 -3.822534 -6.912520 -8.574388 1.745242 34.643841 -7.900520 4.299890 7.957790 -14.567136 2.186846 1.426619 -57.295452 -3.953484 -3.485186 -27.591641 -21.213189 3.226651 -3.910035 3.187741 0.063910 0.270990 -0.220010 0.038270 10.220559 0.858237 3.010054 68.406078 3.065954 -7.304157 15.683569 18.025255 0.037646 2.634255 -1.547046 -0.112020 -0.103880 -0.102450 -0.119580 
-0.204120 16.873950 -0.798990 -2.578264 -3.606497 5.024636 -14.815609 13.041473 2.765318 5.704071 -2.319949 -17.302483 -8.259933 7.703661 21.184205 0.045150 4.723902 3.047262 0.096940 -0.301130 0.383260 18.593897 -11.295494 2.671128 -3.240305 0.996099 -13.222794 8.044133 -5.741180 15.700366 -0.002676 -3.675545 3.173028 -0.202800 0.266850 0.200200 -4.502162 -0.530537 -6.762374 13.941443 0.548246 2.954492 -6.006763 0.682601 3.989383 1.639230 -4.685628 -7.073917 -10.397866 2.552555 35.017375 -8.124550 4.658580 8.010470 -14.158293 2.470037 1.467046 -57.351748 -3.918022 -3.455948 -28.324761 -21.649931 3.445692 -3.887776 3.200357 0.071680 0.259620 -0.208690 0.044950 10.222966 1.215981 3.136911 68.221461 3.039755 -7.393645 16.104160 18.141302 0.105769 2.640545 -1.549626 -0.106600 -0.104520 -0.109590 -0.115600 
-0.205210 16.872930 -0.802110 -2.560076 -3.932459 4.984772 -14.825561 13.084432 2.782525 5.690716 -2.336637 -17.490855 -8.263319 7.781202 21.489877 0.050453 4.761484 3.029192 0.098200 -0.297970 0.380650 18.583287 -11.251191 2.661984 -3.294389 1.014894 -13.216853 8.075977 -5.742931 15.741795 -0.004001 -3.660073 3.180370 -0.202480 0.261540 0.191930 -4.469453 -0.692213 -6.763241 13.849183 0.512615 3.134017 -5.925984 0.709405 3.908386 1.402155 -5.629773 -7.234476 -12.422744 3.496479 35.253822 -8.313380 5.055530 7.975260 -13.695377 2.880893 1.461853 -57.569682 -3.950957 -3.361938 -28.875640 -22.024471 3.627853 -3.871326 3.200522 0.082370 0.249490 -0.203160 0.046600 10.209300 1.514647 3.258162 68.026067 2.981891 -7.477218 16.537828 18.205168 0.178752 2.642672 -1.543106 -0.109750 -0.097660 -0.109470 -0.116260 
